<?xml version="1.0" encoding="utf-8"?>
<!-- Generator: Adobe Illustrator 25.2.1, SVG Export Plug-In . SVG Version: 6.00 Build 0)  -->
<svg version="1.1" id="Layer_1" xmlns="http://www.w3.org/2000/svg" xmlns:xlink="http://www.w3.org/1999/xlink" x="0px" y="0px"
	 viewBox="0 0 24 24" style="enable-background:new 0 0 24 24;" xml:space="preserve">
<style type="text/css">
	.st0{fill:#FF2C5E;}
</style>
<g id="Count_Down">
	<g id="Glyph">
		<path class="st0" d="M13.4,3.2h-2.7c-0.6,0-1-0.5-1-1s0.5-1,1-1h2.7c0.6,0,1,0.5,1,1S13.9,3.2,13.4,3.2z"/>
		<path class="st0" d="M18.7,6.6c-0.1-0.1-0.2-0.2-0.2-0.2l0.8-1.1c0.1-0.2,0.1-0.4-0.1-0.5L18.2,4C18,3.9,17.8,3.9,17.7,4
			c0,0,0,0,0,0l-0.8,1.1C12.4,2.5,6.5,4,3.8,8.5S2.6,18.8,7.1,21.5s10.3,1.2,13-3.3C22.4,14.5,21.8,9.7,18.7,6.6L18.7,6.6z M12,21.5
			c-4.5,0-8.1-3.7-8.1-8.1S7.6,5.2,12,5.2s8.1,3.7,8.1,8.1S16.5,21.5,12,21.5z"/>
		<path class="st0" d="M18.5,13.7H12c-0.2,0-0.3-0.2-0.3-0.3V6.9c0-0.2,0.2-0.3,0.3-0.3c3.7,0,6.8,3,6.8,6.8
			C18.8,13.5,18.6,13.7,18.5,13.7z"/>
		<circle class="st0" cx="9.7" cy="7.3" r="0.3"/>
		<circle class="st0" cx="8" cy="8.3" r="0.3"/>
		<circle class="st0" cx="6.6" cy="9.8" r="0.3"/>
		<circle class="st0" cx="5.8" cy="11.7" r="0.3"/>
		<circle class="st0" cx="5.6" cy="13.7" r="0.3"/>
		<circle class="st0" cx="6" cy="15.7" r="0.3"/>
		<circle class="st0" cx="7" cy="17.4" r="0.3"/>
		<circle class="st0" cx="8.5" cy="18.8" r="0.3"/>
		<circle class="st0" cx="10.4" cy="19.6" r="0.3"/>
		<circle class="st0" cx="12.4" cy="19.8" r="0.3"/>
		<circle class="st0" cx="14.3" cy="19.4" r="0.3"/>
		<circle class="st0" cx="16.1" cy="18.4" r="0.3"/>
		<circle class="st0" cx="17.4" cy="16.9" r="0.3"/>
		<circle class="st0" cx="18.2" cy="15" r="0.3"/>
	</g>
</g>
</svg>
